<mxfile host="app.diagrams.net" modified="2021-06-01T05:53:57.796Z" agent="5.0 (Macintosh; Intel Mac OS X 10_15_7) AppleWebKit/537.36 (KHTML, like Gecko) Chrome/90.0.4430.212 Safari/537.36" etag="xPj2WB8XsO4eExtuIOL4" version="14.7.2" type="github">
  <diagram name="Page-1" id="13e1069c-82ec-6db2-03f1-153e76fe0fe0">
    <mxGraphModel dx="1977" dy="908" grid="1" gridSize="10" guides="1" tooltips="1" connect="1" arrows="1" fold="1" page="1" pageScale="1" pageWidth="1100" pageHeight="850" background="none" math="0" shadow="0">
      <root>
        <mxCell id="0" />
        <mxCell id="1" parent="0" />
        <mxCell id="7baba1c4bc27f4b0-2" value=":LoginForm" style="shape=umlLifeline;perimeter=lifelinePerimeter;whiteSpace=wrap;html=1;container=1;collapsible=0;recursiveResize=0;outlineConnect=0;rounded=1;shadow=0;comic=0;labelBackgroundColor=none;strokeWidth=1;fontFamily=Verdana;fontSize=12;align=center;" parent="1" vertex="1">
          <mxGeometry x="220" y="1302.5" width="100" height="290" as="geometry" />
        </mxCell>
        <mxCell id="O_Q5zuV4C6FKWzsZIutj-85" value="" style="html=1;points=[];perimeter=orthogonalPerimeter;" vertex="1" parent="7baba1c4bc27f4b0-2">
          <mxGeometry x="45" y="70" width="10" height="30" as="geometry" />
        </mxCell>
        <mxCell id="7baba1c4bc27f4b0-3" value=":SignUpForm" style="shape=umlLifeline;perimeter=lifelinePerimeter;whiteSpace=wrap;html=1;container=1;collapsible=0;recursiveResize=0;outlineConnect=0;rounded=1;shadow=0;comic=0;labelBackgroundColor=none;strokeWidth=1;fontFamily=Verdana;fontSize=12;align=center;" parent="1" vertex="1">
          <mxGeometry x="510" y="1300" width="130" height="292.5" as="geometry" />
        </mxCell>
        <mxCell id="7baba1c4bc27f4b0-6" value=":Firebase" style="shape=umlLifeline;perimeter=lifelinePerimeter;whiteSpace=wrap;html=1;container=1;collapsible=0;recursiveResize=0;outlineConnect=0;rounded=1;shadow=0;comic=0;labelBackgroundColor=none;strokeWidth=1;fontFamily=Verdana;fontSize=12;align=center;" parent="1" vertex="1">
          <mxGeometry x="800" y="1302.5" width="100" height="290" as="geometry" />
        </mxCell>
        <mxCell id="O_Q5zuV4C6FKWzsZIutj-91" value="" style="html=1;points=[];perimeter=orthogonalPerimeter;" vertex="1" parent="7baba1c4bc27f4b0-6">
          <mxGeometry x="45" y="100" width="10" height="130" as="geometry" />
        </mxCell>
        <mxCell id="7baba1c4bc27f4b0-7" value=":Database" style="shape=umlLifeline;perimeter=lifelinePerimeter;whiteSpace=wrap;html=1;container=1;collapsible=0;recursiveResize=0;outlineConnect=0;rounded=1;shadow=0;comic=0;labelBackgroundColor=none;strokeWidth=1;fontFamily=Verdana;fontSize=12;align=center;" parent="1" vertex="1">
          <mxGeometry x="940" y="1302.5" width="100" height="290" as="geometry" />
        </mxCell>
        <mxCell id="O_Q5zuV4C6FKWzsZIutj-7" value="" style="html=1;points=[];perimeter=orthogonalPerimeter;" vertex="1" parent="7baba1c4bc27f4b0-7">
          <mxGeometry x="45" y="190" width="10" height="30" as="geometry" />
        </mxCell>
        <mxCell id="7baba1c4bc27f4b0-8" value=":Webpage" style="shape=umlLifeline;perimeter=lifelinePerimeter;whiteSpace=wrap;html=1;container=1;collapsible=0;recursiveResize=0;outlineConnect=0;rounded=1;shadow=0;comic=0;labelBackgroundColor=none;strokeWidth=1;fontFamily=Verdana;fontSize=12;align=center;" parent="1" vertex="1">
          <mxGeometry x="80" y="1302.5" width="100" height="290" as="geometry" />
        </mxCell>
        <mxCell id="7baba1c4bc27f4b0-9" value="" style="html=1;points=[];perimeter=orthogonalPerimeter;rounded=0;shadow=0;comic=0;labelBackgroundColor=none;strokeWidth=1;fontFamily=Verdana;fontSize=12;align=center;" parent="7baba1c4bc27f4b0-8" vertex="1">
          <mxGeometry x="45" y="70" width="10" height="110" as="geometry" />
        </mxCell>
        <mxCell id="7baba1c4bc27f4b0-44" value="Send an email to the registering account" style="shape=note;whiteSpace=wrap;html=1;size=14;verticalAlign=top;align=left;spacingTop=-6;rounded=0;shadow=0;comic=0;labelBackgroundColor=none;strokeWidth=1;fontFamily=Verdana;fontSize=12" parent="1" vertex="1">
          <mxGeometry x="675" y="580" width="120" height="55" as="geometry" />
        </mxCell>
        <mxCell id="7baba1c4bc27f4b0-45" value="Authorize API" style="shape=note;whiteSpace=wrap;html=1;size=14;verticalAlign=top;align=left;spacingTop=-6;rounded=0;shadow=0;comic=0;labelBackgroundColor=none;strokeWidth=1;fontFamily=Verdana;fontSize=12" parent="1" vertex="1">
          <mxGeometry x="820" y="190" width="100" height="35" as="geometry" />
        </mxCell>
        <mxCell id="7baba1c4bc27f4b0-46" value="Firestore Database" style="shape=note;whiteSpace=wrap;html=1;size=14;verticalAlign=top;align=left;spacingTop=-6;rounded=0;shadow=0;comic=0;labelBackgroundColor=none;strokeWidth=1;fontFamily=Verdana;fontSize=12" parent="1" vertex="1">
          <mxGeometry x="960" y="190" width="100" height="35" as="geometry" />
        </mxCell>
        <mxCell id="O_Q5zuV4C6FKWzsZIutj-1" value="&lt;font style=&quot;font-size: 35px&quot;&gt;&lt;b&gt;Basic User Login Sequence&lt;/b&gt;&lt;/font&gt;" style="text;html=1;strokeColor=none;fillColor=none;align=center;verticalAlign=middle;whiteSpace=wrap;rounded=0;fontStyle=4" vertex="1" parent="1">
          <mxGeometry x="330" y="60" width="405" height="100" as="geometry" />
        </mxCell>
        <mxCell id="O_Q5zuV4C6FKWzsZIutj-8" value="hash password" style="html=1;verticalAlign=bottom;endArrow=block;entryX=-0.055;entryY=0.007;entryDx=0;entryDy=0;entryPerimeter=0;exitX=0.941;exitY=0.691;exitDx=0;exitDy=0;exitPerimeter=0;" edge="1" target="O_Q5zuV4C6FKWzsZIutj-7" parent="1" source="O_Q5zuV4C6FKWzsZIutj-91">
          <mxGeometry relative="1" as="geometry">
            <mxPoint x="855" y="1450.98" as="sourcePoint" />
          </mxGeometry>
        </mxCell>
        <mxCell id="O_Q5zuV4C6FKWzsZIutj-12" value=":LoginForm" style="shape=umlLifeline;perimeter=lifelinePerimeter;whiteSpace=wrap;html=1;container=1;collapsible=0;recursiveResize=0;outlineConnect=0;rounded=1;shadow=0;comic=0;labelBackgroundColor=none;strokeWidth=1;fontFamily=Verdana;fontSize=12;align=center;" vertex="1" parent="1">
          <mxGeometry x="230" y="250" width="100" height="230" as="geometry" />
        </mxCell>
        <mxCell id="O_Q5zuV4C6FKWzsZIutj-13" value="" style="html=1;points=[];perimeter=orthogonalPerimeter;rounded=0;shadow=0;comic=0;labelBackgroundColor=none;strokeWidth=1;fontFamily=Verdana;fontSize=12;align=center;" vertex="1" parent="O_Q5zuV4C6FKWzsZIutj-12">
          <mxGeometry x="45" y="100" width="10" height="60" as="geometry" />
        </mxCell>
        <mxCell id="O_Q5zuV4C6FKWzsZIutj-14" value=":SignUpForm" style="shape=umlLifeline;perimeter=lifelinePerimeter;whiteSpace=wrap;html=1;container=1;collapsible=0;recursiveResize=0;outlineConnect=0;rounded=1;shadow=0;comic=0;labelBackgroundColor=none;strokeWidth=1;fontFamily=Verdana;fontSize=12;align=center;" vertex="1" parent="1">
          <mxGeometry x="390" y="250" width="100" height="230" as="geometry" />
        </mxCell>
        <mxCell id="O_Q5zuV4C6FKWzsZIutj-19" value=":Firebase" style="shape=umlLifeline;perimeter=lifelinePerimeter;whiteSpace=wrap;html=1;container=1;collapsible=0;recursiveResize=0;outlineConnect=0;rounded=1;shadow=0;comic=0;labelBackgroundColor=none;strokeWidth=1;fontFamily=Verdana;fontSize=12;align=center;" vertex="1" parent="1">
          <mxGeometry x="810" y="250" width="100" height="230" as="geometry" />
        </mxCell>
        <mxCell id="O_Q5zuV4C6FKWzsZIutj-20" value="" style="html=1;points=[];perimeter=orthogonalPerimeter;" vertex="1" parent="O_Q5zuV4C6FKWzsZIutj-19">
          <mxGeometry x="45" y="110" width="10" height="50" as="geometry" />
        </mxCell>
        <mxCell id="O_Q5zuV4C6FKWzsZIutj-21" value=":Database" style="shape=umlLifeline;perimeter=lifelinePerimeter;whiteSpace=wrap;html=1;container=1;collapsible=0;recursiveResize=0;outlineConnect=0;rounded=1;shadow=0;comic=0;labelBackgroundColor=none;strokeWidth=1;fontFamily=Verdana;fontSize=12;align=center;" vertex="1" parent="1">
          <mxGeometry x="950" y="250" width="100" height="230" as="geometry" />
        </mxCell>
        <mxCell id="O_Q5zuV4C6FKWzsZIutj-22" value="" style="html=1;points=[];perimeter=orthogonalPerimeter;" vertex="1" parent="O_Q5zuV4C6FKWzsZIutj-21">
          <mxGeometry x="43.03" y="130" width="10" height="30" as="geometry" />
        </mxCell>
        <mxCell id="O_Q5zuV4C6FKWzsZIutj-23" value=":Webpage" style="shape=umlLifeline;perimeter=lifelinePerimeter;whiteSpace=wrap;html=1;container=1;collapsible=0;recursiveResize=0;outlineConnect=0;rounded=1;shadow=0;comic=0;labelBackgroundColor=none;strokeWidth=1;fontFamily=Verdana;fontSize=12;align=center;" vertex="1" parent="1">
          <mxGeometry x="90" y="250" width="100" height="230" as="geometry" />
        </mxCell>
        <mxCell id="O_Q5zuV4C6FKWzsZIutj-24" value="" style="html=1;points=[];perimeter=orthogonalPerimeter;rounded=0;shadow=0;comic=0;labelBackgroundColor=none;strokeWidth=1;fontFamily=Verdana;fontSize=12;align=center;" vertex="1" parent="O_Q5zuV4C6FKWzsZIutj-23">
          <mxGeometry x="45" y="60" width="10" height="110" as="geometry" />
        </mxCell>
        <mxCell id="O_Q5zuV4C6FKWzsZIutj-25" value="Default" style="html=1;verticalAlign=bottom;endArrow=block;entryX=0;entryY=0;labelBackgroundColor=none;fontFamily=Verdana;fontSize=12;edgeStyle=elbowEdgeStyle;elbow=vertical;" edge="1" parent="1" source="O_Q5zuV4C6FKWzsZIutj-24" target="O_Q5zuV4C6FKWzsZIutj-13">
          <mxGeometry relative="1" as="geometry">
            <mxPoint x="210" y="360" as="sourcePoint" />
          </mxGeometry>
        </mxCell>
        <mxCell id="O_Q5zuV4C6FKWzsZIutj-26" value="" style="endArrow=classic;html=1;entryX=-0.002;entryY=0;entryDx=0;entryDy=0;entryPerimeter=0;exitX=1.024;exitY=0.129;exitDx=0;exitDy=0;exitPerimeter=0;" edge="1" parent="1" source="O_Q5zuV4C6FKWzsZIutj-13" target="O_Q5zuV4C6FKWzsZIutj-20">
          <mxGeometry width="50" height="50" relative="1" as="geometry">
            <mxPoint x="270" y="450" as="sourcePoint" />
            <mxPoint x="860" y="388" as="targetPoint" />
          </mxGeometry>
        </mxCell>
        <mxCell id="O_Q5zuV4C6FKWzsZIutj-27" value="Verification" style="edgeLabel;html=1;align=center;verticalAlign=middle;resizable=0;points=[];" vertex="1" connectable="0" parent="O_Q5zuV4C6FKWzsZIutj-26">
          <mxGeometry x="-0.1172" y="1" relative="1" as="geometry">
            <mxPoint as="offset" />
          </mxGeometry>
        </mxCell>
        <mxCell id="O_Q5zuV4C6FKWzsZIutj-28" value="validate existence" style="html=1;verticalAlign=bottom;endArrow=block;entryX=-0.055;entryY=0.007;entryDx=0;entryDy=0;entryPerimeter=0;" edge="1" parent="1" source="O_Q5zuV4C6FKWzsZIutj-20" target="O_Q5zuV4C6FKWzsZIutj-22">
          <mxGeometry relative="1" as="geometry">
            <mxPoint x="865" y="398.48000000000013" as="sourcePoint" />
          </mxGeometry>
        </mxCell>
        <mxCell id="O_Q5zuV4C6FKWzsZIutj-29" value="return user" style="html=1;verticalAlign=bottom;endArrow=open;dashed=1;endSize=8;exitX=0;exitY=0.95;" edge="1" parent="1" source="O_Q5zuV4C6FKWzsZIutj-22" target="O_Q5zuV4C6FKWzsZIutj-19">
          <mxGeometry relative="1" as="geometry">
            <mxPoint x="923.03" y="456" as="targetPoint" />
          </mxGeometry>
        </mxCell>
        <mxCell id="O_Q5zuV4C6FKWzsZIutj-30" value="return user if passed validation" style="html=1;verticalAlign=bottom;endArrow=open;dashed=1;endSize=8;exitX=-0.05;exitY=1.02;exitDx=0;exitDy=0;exitPerimeter=0;" edge="1" parent="1" source="O_Q5zuV4C6FKWzsZIutj-20" target="O_Q5zuV4C6FKWzsZIutj-24">
          <mxGeometry relative="1" as="geometry">
            <mxPoint x="850" y="410" as="sourcePoint" />
            <mxPoint x="160" y="411" as="targetPoint" />
          </mxGeometry>
        </mxCell>
        <mxCell id="O_Q5zuV4C6FKWzsZIutj-31" value="" style="html=1;points=[];perimeter=orthogonalPerimeter;rounded=0;shadow=0;comic=0;labelBackgroundColor=none;strokeWidth=1;fontFamily=Verdana;fontSize=12;align=center;" vertex="1" parent="1">
          <mxGeometry x="140" y="320" width="10" height="20" as="geometry" />
        </mxCell>
        <mxCell id="O_Q5zuV4C6FKWzsZIutj-32" value="check cookie &lt;br&gt;for login info" style="html=1;verticalAlign=bottom;endArrow=block;labelBackgroundColor=none;fontFamily=Verdana;fontSize=12;elbow=vertical;edgeStyle=orthogonalEdgeStyle;curved=1;entryX=1;entryY=0.286;entryPerimeter=0;exitX=0.985;exitY=0.014;exitPerimeter=0;exitDx=0;exitDy=0;" edge="1" parent="1" source="O_Q5zuV4C6FKWzsZIutj-31" target="O_Q5zuV4C6FKWzsZIutj-31">
          <mxGeometry x="0.1055" y="20" relative="1" as="geometry">
            <mxPoint x="285.3799999999999" y="347.0000000000001" as="sourcePoint" />
            <mxPoint x="285" y="294.9" as="targetPoint" />
            <Array as="points">
              <mxPoint x="150" y="310" />
              <mxPoint x="190" y="310" />
              <mxPoint x="190" y="326" />
              <mxPoint x="150" y="326" />
            </Array>
            <mxPoint as="offset" />
          </mxGeometry>
        </mxCell>
        <mxCell id="O_Q5zuV4C6FKWzsZIutj-33" value=":LoginForm" style="shape=umlLifeline;perimeter=lifelinePerimeter;whiteSpace=wrap;html=1;container=1;collapsible=0;recursiveResize=0;outlineConnect=0;rounded=1;shadow=0;comic=0;labelBackgroundColor=none;strokeWidth=1;fontFamily=Verdana;fontSize=12;align=center;" vertex="1" parent="1">
          <mxGeometry x="240" y="650" width="100" height="430" as="geometry" />
        </mxCell>
        <mxCell id="O_Q5zuV4C6FKWzsZIutj-34" value="" style="html=1;points=[];perimeter=orthogonalPerimeter;rounded=0;shadow=0;comic=0;labelBackgroundColor=none;strokeWidth=1;fontFamily=Verdana;fontSize=12;align=center;" vertex="1" parent="O_Q5zuV4C6FKWzsZIutj-33">
          <mxGeometry x="45" y="70" width="10" height="30" as="geometry" />
        </mxCell>
        <mxCell id="O_Q5zuV4C6FKWzsZIutj-74" value="verify Login" style="html=1;verticalAlign=bottom;endArrow=block;entryX=0.321;entryY=0.011;entryDx=0;entryDy=0;entryPerimeter=0;" edge="1" parent="O_Q5zuV4C6FKWzsZIutj-33" target="O_Q5zuV4C6FKWzsZIutj-39">
          <mxGeometry width="80" relative="1" as="geometry">
            <mxPoint x="55" y="270" as="sourcePoint" />
            <mxPoint x="135" y="270" as="targetPoint" />
          </mxGeometry>
        </mxCell>
        <mxCell id="O_Q5zuV4C6FKWzsZIutj-35" value=":SignUpForm" style="shape=umlLifeline;perimeter=lifelinePerimeter;whiteSpace=wrap;html=1;container=1;collapsible=0;recursiveResize=0;outlineConnect=0;rounded=1;shadow=0;comic=0;labelBackgroundColor=none;strokeWidth=1;fontFamily=Verdana;fontSize=12;align=center;" vertex="1" parent="1">
          <mxGeometry x="400" y="650" width="100" height="430" as="geometry" />
        </mxCell>
        <mxCell id="O_Q5zuV4C6FKWzsZIutj-54" value="" style="html=1;points=[];perimeter=orthogonalPerimeter;" vertex="1" parent="O_Q5zuV4C6FKWzsZIutj-35">
          <mxGeometry x="45" y="100" width="10" height="90" as="geometry" />
        </mxCell>
        <mxCell id="O_Q5zuV4C6FKWzsZIutj-36" value=":FirstTimeForm" style="shape=umlLifeline;perimeter=lifelinePerimeter;whiteSpace=wrap;html=1;container=1;collapsible=0;recursiveResize=0;outlineConnect=0;rounded=1;shadow=0;comic=0;labelBackgroundColor=none;strokeWidth=1;fontFamily=Verdana;fontSize=12;align=center;" vertex="1" parent="1">
          <mxGeometry x="540" y="650" width="100" height="430" as="geometry" />
        </mxCell>
        <mxCell id="O_Q5zuV4C6FKWzsZIutj-78" value="" style="html=1;points=[];perimeter=orthogonalPerimeter;" vertex="1" parent="O_Q5zuV4C6FKWzsZIutj-36">
          <mxGeometry x="45" y="350" width="10" height="50" as="geometry" />
        </mxCell>
        <mxCell id="O_Q5zuV4C6FKWzsZIutj-80" value="return" style="html=1;verticalAlign=bottom;endArrow=open;dashed=1;endSize=8;exitX=0;exitY=0.95;" edge="1" source="O_Q5zuV4C6FKWzsZIutj-78" parent="O_Q5zuV4C6FKWzsZIutj-36">
          <mxGeometry relative="1" as="geometry">
            <mxPoint x="-380" y="398" as="targetPoint" />
          </mxGeometry>
        </mxCell>
        <mxCell id="O_Q5zuV4C6FKWzsZIutj-37" value=":EmailVerification" style="shape=umlLifeline;perimeter=lifelinePerimeter;whiteSpace=wrap;html=1;container=1;collapsible=0;recursiveResize=0;outlineConnect=0;rounded=1;shadow=0;comic=0;labelBackgroundColor=none;strokeWidth=1;fontFamily=Verdana;fontSize=12;align=center;" vertex="1" parent="1">
          <mxGeometry x="680" y="650" width="110" height="430" as="geometry" />
        </mxCell>
        <mxCell id="O_Q5zuV4C6FKWzsZIutj-62" value="" style="html=1;points=[];perimeter=orthogonalPerimeter;" vertex="1" parent="O_Q5zuV4C6FKWzsZIutj-37">
          <mxGeometry x="50" y="150" width="10" height="60" as="geometry" />
        </mxCell>
        <mxCell id="O_Q5zuV4C6FKWzsZIutj-38" value=":Firebase" style="shape=umlLifeline;perimeter=lifelinePerimeter;whiteSpace=wrap;html=1;container=1;collapsible=0;recursiveResize=0;outlineConnect=0;rounded=1;shadow=0;comic=0;labelBackgroundColor=none;strokeWidth=1;fontFamily=Verdana;fontSize=12;align=center;" vertex="1" parent="1">
          <mxGeometry x="820" y="650" width="100" height="430" as="geometry" />
        </mxCell>
        <mxCell id="O_Q5zuV4C6FKWzsZIutj-39" value="" style="html=1;points=[];perimeter=orthogonalPerimeter;" vertex="1" parent="O_Q5zuV4C6FKWzsZIutj-38">
          <mxGeometry x="45" y="270" width="10" height="50" as="geometry" />
        </mxCell>
        <mxCell id="O_Q5zuV4C6FKWzsZIutj-65" value="temporary store user" style="html=1;verticalAlign=bottom;endArrow=block;entryX=0.22;entryY=0;entryDx=0;entryDy=0;entryPerimeter=0;" edge="1" parent="O_Q5zuV4C6FKWzsZIutj-38" target="O_Q5zuV4C6FKWzsZIutj-66">
          <mxGeometry width="80" relative="1" as="geometry">
            <mxPoint x="50" y="160" as="sourcePoint" />
            <mxPoint x="180" y="160" as="targetPoint" />
          </mxGeometry>
        </mxCell>
        <mxCell id="O_Q5zuV4C6FKWzsZIutj-40" value=":Database" style="shape=umlLifeline;perimeter=lifelinePerimeter;whiteSpace=wrap;html=1;container=1;collapsible=0;recursiveResize=0;outlineConnect=0;rounded=1;shadow=0;comic=0;labelBackgroundColor=none;strokeWidth=1;fontFamily=Verdana;fontSize=12;align=center;" vertex="1" parent="1">
          <mxGeometry x="960" y="650" width="100" height="430" as="geometry" />
        </mxCell>
        <mxCell id="O_Q5zuV4C6FKWzsZIutj-41" value="" style="html=1;points=[];perimeter=orthogonalPerimeter;" vertex="1" parent="O_Q5zuV4C6FKWzsZIutj-40">
          <mxGeometry x="45" y="280" width="10" height="30" as="geometry" />
        </mxCell>
        <mxCell id="O_Q5zuV4C6FKWzsZIutj-66" value="" style="html=1;points=[];perimeter=orthogonalPerimeter;" vertex="1" parent="O_Q5zuV4C6FKWzsZIutj-40">
          <mxGeometry x="45" y="160" width="10" height="10" as="geometry" />
        </mxCell>
        <mxCell id="O_Q5zuV4C6FKWzsZIutj-67" value="" style="html=1;points=[];perimeter=orthogonalPerimeter;" vertex="1" parent="O_Q5zuV4C6FKWzsZIutj-40">
          <mxGeometry x="45" y="210" width="10" height="20" as="geometry" />
        </mxCell>
        <mxCell id="O_Q5zuV4C6FKWzsZIutj-82" value="" style="html=1;points=[];perimeter=orthogonalPerimeter;" vertex="1" parent="O_Q5zuV4C6FKWzsZIutj-40">
          <mxGeometry x="45" y="360" width="10" height="30" as="geometry" />
        </mxCell>
        <mxCell id="O_Q5zuV4C6FKWzsZIutj-84" value="return" style="html=1;verticalAlign=bottom;endArrow=open;dashed=1;endSize=8;exitX=0;exitY=0.95;" edge="1" source="O_Q5zuV4C6FKWzsZIutj-82" parent="O_Q5zuV4C6FKWzsZIutj-40">
          <mxGeometry relative="1" as="geometry">
            <mxPoint x="-360" y="389" as="targetPoint" />
          </mxGeometry>
        </mxCell>
        <mxCell id="O_Q5zuV4C6FKWzsZIutj-42" value=":Webpage" style="shape=umlLifeline;perimeter=lifelinePerimeter;whiteSpace=wrap;html=1;container=1;collapsible=0;recursiveResize=0;outlineConnect=0;rounded=1;shadow=0;comic=0;labelBackgroundColor=none;strokeWidth=1;fontFamily=Verdana;fontSize=12;align=center;" vertex="1" parent="1">
          <mxGeometry x="100" y="650" width="100" height="430" as="geometry" />
        </mxCell>
        <mxCell id="O_Q5zuV4C6FKWzsZIutj-43" value="" style="html=1;points=[];perimeter=orthogonalPerimeter;rounded=0;shadow=0;comic=0;labelBackgroundColor=none;strokeWidth=1;fontFamily=Verdana;fontSize=12;align=center;" vertex="1" parent="O_Q5zuV4C6FKWzsZIutj-42">
          <mxGeometry x="45" y="60" width="10" height="350" as="geometry" />
        </mxCell>
        <mxCell id="O_Q5zuV4C6FKWzsZIutj-44" value="Default" style="html=1;verticalAlign=bottom;endArrow=block;entryX=0;entryY=0;labelBackgroundColor=none;fontFamily=Verdana;fontSize=12;edgeStyle=elbowEdgeStyle;elbow=vertical;" edge="1" parent="1" source="O_Q5zuV4C6FKWzsZIutj-43" target="O_Q5zuV4C6FKWzsZIutj-34">
          <mxGeometry relative="1" as="geometry">
            <mxPoint x="220" y="760" as="sourcePoint" />
          </mxGeometry>
        </mxCell>
        <mxCell id="O_Q5zuV4C6FKWzsZIutj-47" value="validate existence" style="html=1;verticalAlign=bottom;endArrow=block;entryX=-0.055;entryY=0.007;entryDx=0;entryDy=0;entryPerimeter=0;" edge="1" parent="1" source="O_Q5zuV4C6FKWzsZIutj-39" target="O_Q5zuV4C6FKWzsZIutj-41">
          <mxGeometry relative="1" as="geometry">
            <mxPoint x="875" y="798.4800000000001" as="sourcePoint" />
          </mxGeometry>
        </mxCell>
        <mxCell id="O_Q5zuV4C6FKWzsZIutj-48" value="return user" style="html=1;verticalAlign=bottom;endArrow=open;dashed=1;endSize=8;exitX=0;exitY=0.95;" edge="1" parent="1" source="O_Q5zuV4C6FKWzsZIutj-41" target="O_Q5zuV4C6FKWzsZIutj-38">
          <mxGeometry relative="1" as="geometry">
            <mxPoint x="933.03" y="856" as="targetPoint" />
          </mxGeometry>
        </mxCell>
        <mxCell id="O_Q5zuV4C6FKWzsZIutj-49" value="return user if passed validation" style="html=1;verticalAlign=bottom;endArrow=open;dashed=1;endSize=8;exitX=-0.05;exitY=1.02;exitDx=0;exitDy=0;exitPerimeter=0;" edge="1" parent="1" source="O_Q5zuV4C6FKWzsZIutj-39" target="O_Q5zuV4C6FKWzsZIutj-33">
          <mxGeometry relative="1" as="geometry">
            <mxPoint x="860" y="810" as="sourcePoint" />
            <mxPoint x="310" y="971" as="targetPoint" />
          </mxGeometry>
        </mxCell>
        <mxCell id="O_Q5zuV4C6FKWzsZIutj-53" value="&lt;font style=&quot;font-size: 35px&quot;&gt;&lt;b&gt;New User Registration Sequence&lt;/b&gt;&lt;/font&gt;" style="text;html=1;strokeColor=none;fillColor=none;align=center;verticalAlign=middle;whiteSpace=wrap;rounded=0;fontStyle=4" vertex="1" parent="1">
          <mxGeometry x="340" y="510" width="405" height="100" as="geometry" />
        </mxCell>
        <mxCell id="O_Q5zuV4C6FKWzsZIutj-56" value="Sign Up" style="html=1;verticalAlign=bottom;endArrow=block;entryX=0;entryY=0.024;entryDx=0;entryDy=0;entryPerimeter=0;" edge="1" parent="1" target="O_Q5zuV4C6FKWzsZIutj-54">
          <mxGeometry width="80" relative="1" as="geometry">
            <mxPoint x="296" y="752" as="sourcePoint" />
            <mxPoint x="400" y="810" as="targetPoint" />
          </mxGeometry>
        </mxCell>
        <mxCell id="O_Q5zuV4C6FKWzsZIutj-61" value="" style="html=1;points=[];perimeter=orthogonalPerimeter;" vertex="1" parent="1">
          <mxGeometry x="865" y="775" width="10" height="115" as="geometry" />
        </mxCell>
        <mxCell id="O_Q5zuV4C6FKWzsZIutj-60" value="request Authentication" style="html=1;verticalAlign=bottom;endArrow=block;entryX=0.429;entryY=0.003;entryDx=0;entryDy=0;entryPerimeter=0;" edge="1" parent="1" target="O_Q5zuV4C6FKWzsZIutj-61">
          <mxGeometry width="80" relative="1" as="geometry">
            <mxPoint x="456" y="775" as="sourcePoint" />
            <mxPoint x="850" y="780" as="targetPoint" />
            <Array as="points" />
          </mxGeometry>
        </mxCell>
        <mxCell id="O_Q5zuV4C6FKWzsZIutj-63" value="send email" style="html=1;verticalAlign=bottom;endArrow=block;entryX=1;entryY=0;exitX=0.5;exitY=0.217;exitDx=0;exitDy=0;exitPerimeter=0;" edge="1" target="O_Q5zuV4C6FKWzsZIutj-62" parent="1" source="O_Q5zuV4C6FKWzsZIutj-61">
          <mxGeometry relative="1" as="geometry">
            <mxPoint x="860" y="800" as="sourcePoint" />
          </mxGeometry>
        </mxCell>
        <mxCell id="O_Q5zuV4C6FKWzsZIutj-64" value="return confirmation" style="html=1;verticalAlign=bottom;endArrow=open;dashed=1;endSize=8;exitX=1;exitY=0.95;" edge="1" source="O_Q5zuV4C6FKWzsZIutj-62" parent="1" target="O_Q5zuV4C6FKWzsZIutj-38">
          <mxGeometry relative="1" as="geometry">
            <mxPoint x="800" y="857" as="targetPoint" />
          </mxGeometry>
        </mxCell>
        <mxCell id="O_Q5zuV4C6FKWzsZIutj-68" value="permanently store user" style="html=1;verticalAlign=bottom;endArrow=block;entryX=0.22;entryY=0;entryDx=0;entryDy=0;entryPerimeter=0;" edge="1" parent="1">
          <mxGeometry width="80" relative="1" as="geometry">
            <mxPoint x="875" y="860" as="sourcePoint" />
            <mxPoint x="1012.2" y="860" as="targetPoint" />
          </mxGeometry>
        </mxCell>
        <mxCell id="O_Q5zuV4C6FKWzsZIutj-69" value="return" style="html=1;verticalAlign=bottom;endArrow=open;dashed=1;endSize=8;" edge="1" parent="1" source="O_Q5zuV4C6FKWzsZIutj-67">
          <mxGeometry relative="1" as="geometry">
            <mxPoint x="720" y="890" as="sourcePoint" />
            <mxPoint x="870" y="880" as="targetPoint" />
          </mxGeometry>
        </mxCell>
        <mxCell id="O_Q5zuV4C6FKWzsZIutj-71" value="" style="html=1;points=[];perimeter=orthogonalPerimeter;rounded=0;shadow=0;comic=0;labelBackgroundColor=none;strokeWidth=1;fontFamily=Verdana;fontSize=12;align=center;" vertex="1" parent="1">
          <mxGeometry x="285" y="900" width="10" height="80" as="geometry" />
        </mxCell>
        <mxCell id="O_Q5zuV4C6FKWzsZIutj-72" value="Default" style="html=1;verticalAlign=bottom;endArrow=block;entryX=0;entryY=0;labelBackgroundColor=none;fontFamily=Verdana;fontSize=12;edgeStyle=elbowEdgeStyle;elbow=vertical;" edge="1" parent="1" target="O_Q5zuV4C6FKWzsZIutj-71" source="O_Q5zuV4C6FKWzsZIutj-42">
          <mxGeometry relative="1" as="geometry">
            <mxPoint x="180" y="840.5864705882354" as="sourcePoint" />
          </mxGeometry>
        </mxCell>
        <mxCell id="O_Q5zuV4C6FKWzsZIutj-77" value="Logged In" style="html=1;verticalAlign=bottom;endArrow=block;exitX=-0.043;exitY=0.995;exitDx=0;exitDy=0;exitPerimeter=0;" edge="1" parent="1" source="O_Q5zuV4C6FKWzsZIutj-71" target="O_Q5zuV4C6FKWzsZIutj-42">
          <mxGeometry width="80" relative="1" as="geometry">
            <mxPoint x="190" y="1010" as="sourcePoint" />
            <mxPoint x="270" y="1010" as="targetPoint" />
          </mxGeometry>
        </mxCell>
        <mxCell id="O_Q5zuV4C6FKWzsZIutj-79" value="input pre-consultation info" style="html=1;verticalAlign=bottom;endArrow=block;entryX=0;entryY=0;" edge="1" target="O_Q5zuV4C6FKWzsZIutj-78" parent="1" source="O_Q5zuV4C6FKWzsZIutj-43">
          <mxGeometry relative="1" as="geometry">
            <mxPoint x="515" y="1000" as="sourcePoint" />
          </mxGeometry>
        </mxCell>
        <mxCell id="O_Q5zuV4C6FKWzsZIutj-83" value="store info" style="html=1;verticalAlign=bottom;endArrow=block;entryX=0;entryY=0;" edge="1" target="O_Q5zuV4C6FKWzsZIutj-82" parent="1">
          <mxGeometry relative="1" as="geometry">
            <mxPoint x="591.0714285714284" y="1010" as="sourcePoint" />
          </mxGeometry>
        </mxCell>
        <mxCell id="O_Q5zuV4C6FKWzsZIutj-86" value="Default when &lt;br&gt;not logged in" style="html=1;verticalAlign=bottom;endArrow=block;entryX=0;entryY=0;exitX=0.957;exitY=0.025;exitDx=0;exitDy=0;exitPerimeter=0;" edge="1" target="O_Q5zuV4C6FKWzsZIutj-85" parent="1" source="7baba1c4bc27f4b0-9">
          <mxGeometry relative="1" as="geometry">
            <mxPoint x="195" y="1372.5" as="sourcePoint" />
          </mxGeometry>
        </mxCell>
        <mxCell id="O_Q5zuV4C6FKWzsZIutj-87" value="return" style="html=1;verticalAlign=bottom;endArrow=open;dashed=1;endSize=8;exitX=0;exitY=0.95;" edge="1" source="O_Q5zuV4C6FKWzsZIutj-85" parent="1" target="7baba1c4bc27f4b0-8">
          <mxGeometry relative="1" as="geometry">
            <mxPoint x="195" y="1448.5" as="targetPoint" />
          </mxGeometry>
        </mxCell>
        <mxCell id="O_Q5zuV4C6FKWzsZIutj-89" value="Password Reset" style="html=1;verticalAlign=bottom;endArrow=block;entryX=0;entryY=0;" edge="1" target="O_Q5zuV4C6FKWzsZIutj-88" parent="1" source="7baba1c4bc27f4b0-2">
          <mxGeometry relative="1" as="geometry">
            <mxPoint x="495" y="1392.5" as="sourcePoint" />
          </mxGeometry>
        </mxCell>
        <mxCell id="O_Q5zuV4C6FKWzsZIutj-92" value="request password change" style="html=1;verticalAlign=bottom;endArrow=block;entryX=0;entryY=0;" edge="1" target="O_Q5zuV4C6FKWzsZIutj-91" parent="1" source="7baba1c4bc27f4b0-4">
          <mxGeometry relative="1" as="geometry">
            <mxPoint x="775" y="1402.5" as="sourcePoint" />
          </mxGeometry>
        </mxCell>
        <mxCell id="O_Q5zuV4C6FKWzsZIutj-95" value=":EmailVerification" style="shape=umlLifeline;perimeter=lifelinePerimeter;whiteSpace=wrap;html=1;container=1;collapsible=0;recursiveResize=0;outlineConnect=0;rounded=1;shadow=0;comic=0;labelBackgroundColor=none;strokeWidth=1;fontFamily=Verdana;fontSize=12;align=center;" vertex="1" parent="1">
          <mxGeometry x="650" y="1302.5" width="130" height="290" as="geometry" />
        </mxCell>
        <mxCell id="O_Q5zuV4C6FKWzsZIutj-97" value="" style="html=1;points=[];perimeter=orthogonalPerimeter;" vertex="1" parent="O_Q5zuV4C6FKWzsZIutj-95">
          <mxGeometry x="60" y="130" width="10" height="60" as="geometry" />
        </mxCell>
        <mxCell id="7baba1c4bc27f4b0-4" value=":PasswordReset" style="shape=umlLifeline;perimeter=lifelinePerimeter;whiteSpace=wrap;html=1;container=1;collapsible=0;recursiveResize=0;outlineConnect=0;rounded=1;shadow=0;comic=0;labelBackgroundColor=none;strokeWidth=1;fontFamily=Verdana;fontSize=12;align=center;" parent="1" vertex="1">
          <mxGeometry x="360" y="1302.5" width="100" height="290" as="geometry" />
        </mxCell>
        <mxCell id="O_Q5zuV4C6FKWzsZIutj-88" value="" style="html=1;points=[];perimeter=orthogonalPerimeter;" vertex="1" parent="7baba1c4bc27f4b0-4">
          <mxGeometry x="45" y="90" width="10" height="140" as="geometry" />
        </mxCell>
        <mxCell id="O_Q5zuV4C6FKWzsZIutj-98" value="Send Email" style="html=1;verticalAlign=bottom;endArrow=block;entryX=1;entryY=0;exitX=-0.162;exitY=0.224;exitDx=0;exitDy=0;exitPerimeter=0;" edge="1" target="O_Q5zuV4C6FKWzsZIutj-97" parent="1" source="O_Q5zuV4C6FKWzsZIutj-91">
          <mxGeometry relative="1" as="geometry">
            <mxPoint x="840" y="1432.5" as="sourcePoint" />
          </mxGeometry>
        </mxCell>
        <mxCell id="O_Q5zuV4C6FKWzsZIutj-99" value="return confirmation" style="html=1;verticalAlign=bottom;endArrow=open;dashed=1;endSize=8;exitX=1;exitY=0.95;entryX=-0.3;entryY=0.681;entryDx=0;entryDy=0;entryPerimeter=0;" edge="1" source="O_Q5zuV4C6FKWzsZIutj-97" parent="1" target="O_Q5zuV4C6FKWzsZIutj-91">
          <mxGeometry relative="1" as="geometry">
            <mxPoint x="780" y="1489.5" as="targetPoint" />
          </mxGeometry>
        </mxCell>
        <mxCell id="O_Q5zuV4C6FKWzsZIutj-93" value="return" style="html=1;verticalAlign=bottom;endArrow=open;dashed=1;endSize=8;exitX=0;exitY=0.95;" edge="1" source="O_Q5zuV4C6FKWzsZIutj-91" parent="1">
          <mxGeometry relative="1" as="geometry">
            <mxPoint x="420" y="1525.5" as="targetPoint" />
          </mxGeometry>
        </mxCell>
        <mxCell id="O_Q5zuV4C6FKWzsZIutj-100" value="&lt;font style=&quot;font-size: 35px&quot;&gt;&lt;b&gt;Password Change Sequence&lt;/b&gt;&lt;/font&gt;" style="text;html=1;strokeColor=none;fillColor=none;align=center;verticalAlign=middle;whiteSpace=wrap;rounded=0;fontStyle=4" vertex="1" parent="1">
          <mxGeometry x="360" y="1175" width="405" height="100" as="geometry" />
        </mxCell>
      </root>
    </mxGraphModel>
  </diagram>
</mxfile>
